<svg aria-hidden="true" style="position: absolute; width: 0; height: 0; overflow: hidden;" version="1.1" xmlns="http://www.w3.org/2000/svg" xmlns:xlink="http://www.w3.org/1999/xlink">
<defs>
<symbol id="icon-mail" viewBox="0 0 32 32">
<path fill="none" stroke="#52514f" style="stroke: var(--color1, #52514f)" stroke-linejoin="round" stroke-linecap="round" stroke-miterlimit="4" stroke-width="2.6667" d="M5.333 5.333h21.333c1.467 0 2.667 1.2 2.667 2.667v16c0 1.467-1.2 2.667-2.667 2.667h-21.333c-1.467 0-2.667-1.2-2.667-2.667v-16c0-1.467 1.2-2.667 2.667-2.667z"></path>
<path fill="none" stroke="#52514f" style="stroke: var(--color1, #52514f)" stroke-linejoin="round" stroke-linecap="round" stroke-miterlimit="4" stroke-width="2.6667" d="M29.333 8l-13.333 9.333-13.333-9.333"></path>
</symbol>
<symbol id="icon-phone" viewBox="0 0 32 32">
<path fill="none" stroke="#52514f" style="stroke: var(--color1, #52514f)" stroke-linejoin="round" stroke-linecap="round" stroke-miterlimit="4" stroke-width="2.4615" d="M28 22.56v4c0.003 0.751-0.311 1.468-0.864 1.976s-1.295 0.759-2.043 0.691c-4.103-0.446-8.044-1.848-11.507-4.093-3.222-2.047-5.953-4.778-8-8-2.253-3.478-3.656-7.439-4.093-11.56-0.067-0.745 0.182-1.485 0.686-2.038s1.218-0.868 1.967-0.869h4c1.338-0.013 2.479 0.968 2.667 2.293 0.169 1.28 0.482 2.537 0.933 3.747 0.366 0.975 0.132 2.073-0.6 2.813l-1.693 1.693c1.898 3.338 4.662 6.102 8 8l1.693-1.693c0.74-0.732 1.839-0.966 2.813-0.6 1.21 0.451 2.467 0.765 3.747 0.933 1.341 0.189 2.327 1.353 2.293 2.707z"></path>
</symbol>
<symbol id="icon-Shape" viewBox="0 0 53 32">
<path fill="#545a6d" style="fill: var(--color1, #545a6d)" opacity="0.6" d="M6.267 0l20.4 19.795 20.4-19.795 6.267 6.124-26.667 25.876-26.667-25.876 6.267-6.124z"></path>
</symbol>
</defs>
</svg>
