<svg aria-hidden="true" style="position: absolute; width: 0; height: 0; overflow: hidden;" version="1.1" xmlns="http://www.w3.org/2000/svg" xmlns:xlink="http://www.w3.org/1999/xlink">
<defs>
	<symbol id="icon-Vector" viewBox="0 0 24 32">
		<path d="M12.19 0.667c-3.194 0.004-6.256 1.274-8.515 3.533s-3.529 5.321-3.533 8.515c-0.004 2.61 0.849 5.15 2.427 7.229 0 0 0.329 0.433 0.382 0.495l9.238 10.895 9.243-10.901c0.048-0.058 0.378-0.49 0.378-0.49l0.001-0.003c1.578-2.078 2.43-4.616 2.426-7.225-0.004-3.194-1.274-6.256-3.533-8.515s-5.321-3.529-8.515-3.533zM12.19 17.095c-0.867 0-1.714-0.257-2.434-0.738s-1.282-1.166-1.614-1.966c-0.332-0.8-0.418-1.681-0.249-2.531s0.586-1.63 1.199-2.243c0.613-0.613 1.393-1.030 2.243-1.199s1.731-0.082 2.531 0.249 1.485 0.893 1.966 1.614c0.481 0.72 0.738 1.567 0.738 2.434-0.001 1.161-0.463 2.275-1.285 3.096s-1.935 1.283-3.096 1.285z"></path>
	</symbol>
</defs>
</svg>
